<svg xmlns="http://www.w3.org/2000/svg" width="1026" height="140" viewBox="28 110 1026 140">
<title>Groundwork</title>
<g transform="translate(40,71) scale(0.8)">
  <rect x="0" y="168" width="176" height="40" rx="8" fill="#73ba25"/>
  <rect x="20" y="116" width="136" height="40" rx="8" fill="#9fd36a"/>
  <rect x="44" y="64" width="88" height="40" rx="8" fill="#d5ecb9"/>
</g>
<path fill="#eef5e6" d="M298.15 162.56Q295.03 156.84 289.57 153.85000000000002Q284.11 150.86 276.83 150.86Q268.77 150.86 262.53 154.5Q256.29 158.14 252.78000000000003 164.89999999999998Q249.27 171.66 249.27 180.5Q249.27 189.6 252.84500000000003 196.36Q256.42 203.12 262.79 206.76Q269.16 210.4 277.61 210.4Q288.01 210.4 294.64 204.875Q301.27 199.35 303.35 189.47H272.15V175.56H321.29V191.42000000000002Q319.47 200.91 313.49 208.97Q307.51 217.03 298.08500000000004 221.905Q288.66 226.78 276.96 226.78Q263.83 226.78 253.23499999999999 220.865Q242.64 214.95 236.595 204.42Q230.55 193.89 230.55 180.5Q230.55 167.11 236.595 156.51500000000001Q242.64 145.92000000000002 253.23499999999999 140.005Q263.83 134.09 276.83 134.09Q292.17 134.09 303.48 141.565Q314.79 149.04 319.08 162.56ZM375.11 152.94V172.05H370.3Q361.72 172.05 357.365 176.08Q353.01000000000005 180.11 353.01000000000005 190.12V226.0H334.81000000000006V153.98000000000002H353.01000000000005V165.16Q356.52000000000004 159.44 362.17500000000007 156.19Q367.83000000000004 152.94 375.11 152.94ZM382.78000000000003 189.99Q382.78000000000003 178.94 387.65500000000003 170.49Q392.53000000000003 162.04 400.98 157.425Q409.43 152.81 419.83000000000004 152.81Q430.23 152.81 438.68 157.425Q447.13 162.04 452.005 170.49Q456.88 178.94 456.88 189.99Q456.88 201.04 451.875 209.49Q446.87 217.94 438.355 222.555Q429.84000000000003 227.17 419.31 227.17Q408.91 227.17 400.59000000000003 222.555Q392.27000000000004 217.94 387.52500000000003 209.49Q382.78000000000003 201.04 382.78000000000003 189.99ZM438.16 189.99Q438.16 179.72 432.765 174.195Q427.37 168.67 419.57 168.67Q411.77000000000004 168.67 406.505 174.195Q401.24 179.72 401.24 189.99Q401.24 200.26 406.375 205.785Q411.51 211.31 419.31 211.31Q424.25 211.31 428.605 208.905Q432.96000000000004 206.5 435.56000000000006 201.69Q438.16 196.88 438.16 189.99ZM538.26 153.98000000000002V226.0H519.9300000000001V216.9Q516.4200000000001 221.58 510.76500000000004 224.245Q505.11 226.91 498.48 226.91Q490.03000000000003 226.91 483.53000000000003 223.33499999999998Q477.03000000000003 219.76 473.32500000000005 212.805Q469.62 205.85 469.62 196.23V153.98000000000002H487.82V193.63Q487.82 202.21 492.11 206.825Q496.40000000000003 211.44 503.81 211.44Q511.35 211.44 515.6400000000001 206.825Q519.9300000000001 202.21 519.9300000000001 193.63V153.98000000000002ZM624.84 183.75V226.0H606.64V186.22Q606.64 177.64 602.35 173.02499999999998Q598.0600000000001 168.41 590.65 168.41Q583.11 168.41 578.755 173.02499999999998Q574.4 177.64 574.4 186.22V226.0H556.2V153.98000000000002H574.4V162.95Q578.04 158.26999999999998 583.6949999999999 155.605Q589.35 152.94 596.11 152.94Q608.98 152.94 616.9100000000001 161.065Q624.84 169.19 624.84 183.75ZM670.47 152.81Q677.4900000000001 152.81 683.8600000000001 155.865Q690.2300000000001 158.92000000000002 694.0000000000001 163.99V129.8H712.46V226.0H694.0000000000001V215.34Q690.6200000000001 220.67 684.5100000000001 223.92Q678.4000000000001 227.17 670.34 227.17Q661.2400000000001 227.17 653.7 222.49Q646.1600000000001 217.81 641.8050000000001 209.29500000000002Q637.45 200.78 637.45 189.73Q637.45 178.81 641.8050000000001 170.36Q646.1600000000001 161.91 653.7 157.36Q661.2400000000001 152.81 670.47 152.81ZM675.0200000000001 168.8Q669.95 168.8 665.6600000000001 171.27Q661.3700000000001 173.74 658.7050000000002 178.485Q656.0400000000001 183.23 656.0400000000001 189.73Q656.0400000000001 196.23 658.7050000000002 201.105Q661.3700000000001 205.98 665.7250000000001 208.57999999999998Q670.08 211.18 675.0200000000001 211.18Q680.09 211.18 684.51 208.645Q688.9300000000001 206.11 691.5300000000001 201.365Q694.1300000000001 196.62 694.1300000000001 189.99Q694.1300000000001 183.36 691.5300000000001 178.615Q688.9300000000001 173.87 684.51 171.335Q680.09 168.8 675.0200000000001 168.8ZM830.1100000000001 153.98000000000002 809.0500000000001 226.0H789.4200000000001L776.2900000000001 175.69L763.1600000000001 226.0H743.4000000000001L722.21 153.98000000000002H740.6700000000001L753.4100000000001 208.84L767.19 153.98000000000002H786.4300000000001L799.95 208.71L812.69 153.98000000000002ZM835.44 189.99Q835.44 178.94 840.315 170.49Q845.19 162.04 853.6400000000001 157.425Q862.0900000000001 152.81 872.4900000000001 152.81Q882.8900000000001 152.81 891.3400000000001 157.425Q899.7900000000001 162.04 904.6650000000001 170.49Q909.5400000000001 178.94 909.5400000000001 189.99Q909.5400000000001 201.04 904.5350000000001 209.49Q899.5300000000001 217.94 891.0150000000001 222.555Q882.5000000000001 227.17 871.9700000000001 227.17Q861.57 227.17 853.25 222.555Q844.9300000000001 217.94 840.1850000000001 209.49Q835.44 201.04 835.44 189.99ZM890.82 189.99Q890.82 179.72 885.4250000000001 174.195Q880.0300000000001 168.67 872.2300000000001 168.67Q864.4300000000001 168.67 859.1650000000001 174.195Q853.9000000000001 179.72 853.9000000000001 189.99Q853.9000000000001 200.26 859.0350000000001 205.785Q864.1700000000001 211.31 871.9700000000001 211.31Q876.9100000000001 211.31 881.2650000000001 208.905Q885.6200000000001 206.5 888.22 201.69Q890.82 196.88 890.82 189.99ZM963.23 152.94V172.05H958.4200000000001Q949.84 172.05 945.485 176.08Q941.13 180.11 941.13 190.12V226.0H922.9300000000001V153.98000000000002H941.13V165.16Q944.64 159.44 950.2950000000001 156.19Q955.95 152.94 963.23 152.94ZM1018.09 226.0 993.65 195.32V226.0H975.45V129.8H993.65V184.53L1017.83 153.98000000000002H1041.49L1009.77 190.12L1041.75 226.0Z"/>
</svg>
